<svg xmlns="http://www.w3.org/2000/svg" width="75" height="75" viewBox="0 0 75 75"><style>.a{fill:#F15F76;}.b{fill:#231F20;}.c{fill:#D63D61;}.d{fill:#CFCFCE;}.e{fill:#B2B2B0;}.f{fill:#6CB8DD;}.g{fill:#F15F76;stroke-linejoin:round;stroke-width:3;stroke:#231F20;}</style><path d="M51.2 36.5c-0.8 0-1.4-0.6-1.4-1.4V23.7c0-0.8 0.6-1.4 1.4-1.4 1 0 1.9 0.4 2.6 1.1 0.7 0.7 1.1 1.6 1.1 2.6v9.1c0 0.8-0.6 1.4-1.4 1.4H51.2z" class="a"/><path d="M51.2 23.7c0.6 0 1.2 0.3 1.6 0.7 0.4 0.4 0.7 1 0.7 1.6v9.1h-2.2V23.7M51.2 20.8c-1.6 0-2.9 1.3-2.9 2.9v11.3c0 1.6 1.3 2.9 2.9 2.9h2.2c1.6 0 2.9-1.3 2.9-2.9V25.9c0-1.4-0.5-2.7-1.5-3.6C53.8 21.3 52.6 20.8 51.2 20.8L51.2 20.8z" class="b"/><line x1="23.8" y1="26.4" x2="23.8" y2="35" class="c"/><path d="M53.4 29.5v5.5h-2.2V26.4C51.9 27.5 52.6 28.6 53.4 29.5z" class="c"/><path d="M21.6 36.5c-0.8 0-1.4-0.6-1.4-1.4V25.9c0-1 0.4-1.9 1.1-2.6 0.7-0.7 1.6-1.1 2.6-1.1 0.8 0 1.4 0.6 1.4 1.4V35c0 0.8-0.6 1.4-1.4 1.4H21.6z" class="a"/><path d="M23.8 23.7v11.3h-2.2V25.9c0-0.6 0.3-1.2 0.7-1.6C22.6 23.9 23.2 23.7 23.8 23.7M23.8 20.8c-1.4 0-2.6 0.5-3.6 1.5 -1 1-1.5 2.3-1.5 3.6v9.1c0 1.6 1.3 2.9 2.9 2.9h2.2c1.6 0 2.9-1.3 2.9-2.9V23.7C26.7 22.1 25.4 20.8 23.8 20.8L23.8 20.8z" class="b"/><path d="M23.8 35h-2.2V29.5c0.8-1 1.6-2 2.2-3.1" class="c"/><path d="M32.1 70.1c-2.7 0-4.9-2.2-4.9-4.9V62.7c0-0.8 0.6-1.4 1.4-1.4h7.1c0.8 0 1.4 0.6 1.4 1.4v2.6c0 2.7-2.2 4.9-4.9 4.9H32.1z" class="d"/><path d="M35.8 62.7v2.6c0 1.9-1.5 3.4-3.4 3.4h-0.3c-1.9 0-3.4-1.5-3.4-3.4V62.7H35.8M35.8 59.8h-7.1c-1.6 0-2.9 1.3-2.9 2.9v2.6c0 3.5 2.8 6.3 6.3 6.3h0.3c3.5 0 6.3-2.8 6.3-6.3V62.7C38.7 61.1 37.4 59.8 35.8 59.8L35.8 59.8z" class="b"/><path d="M42.6 70.1c-2.7 0-4.9-2.2-4.9-4.9V62.7c0-0.8 0.6-1.4 1.4-1.4h7.1c0.8 0 1.4 0.6 1.4 1.4v2.6c0 2.7-2.2 4.9-4.9 4.9H42.6z" class="d"/><path d="M46.3 62.7v2.6c0 1.9-1.5 3.4-3.4 3.4h-0.3c-1.9 0-3.4-1.5-3.4-3.4V62.7H46.3M46.3 59.8h-7.1c-1.6 0-2.9 1.3-2.9 2.9v2.6c0 3.5 2.8 6.3 6.3 6.3h0.3c3.5 0 6.3-2.8 6.3-6.3V62.7C49.2 61.1 47.9 59.8 46.3 59.8L46.3 59.8z" class="b"/><path d="M26.7 62.3c-0.6 0-1.1-0.4-1.3-0.9l-2.1-4.9c-1.2-3-4-5.1-7.2-5.6 -0.5-0.1-0.9-0.1-1.4-0.1H5.4c-0.8 0-1.4-0.6-1.4-1.4 0-3.6 2.3-6.7 5.7-7.7l0.8-0.2c9.7-2.9 17.4-10.9 20-20.7l3.2-12.2c0.5-1.8 2-2.9 3.8-2.9 1.8 0 3.3 1.2 3.8 2.9l3.2 12.2c2.6 9.8 10.3 17.8 20 20.7l0.8 0.2c1.7 0.5 3.1 1.5 4.1 2.9 1 1.4 1.6 3.1 1.6 4.8 0 0.8-0.6 1.4-1.4 1.4h-9.3c-0.5 0-0.9 0-1.4 0.1 -3.2 0.5-6 2.6-7.2 5.6l-2.1 4.9c-0.2 0.5-0.8 0.9-1.3 0.9H26.7z" class="d"/><path d="M37.5 7c1 0 2.1 0.6 2.4 1.9l3.2 12.2c2.8 10.4 10.7 18.6 21 21.7l0.8 0.2c1.4 0.4 2.6 1.3 3.4 2.4 0.8 1.1 1.3 2.5 1.3 3.9h-9.3c-0.5 0-1.1 0-1.6 0.1 -3.7 0.6-6.9 3-8.3 6.5l-2.1 4.9H26.7l-2.1-4.9c-1.5-3.5-4.6-5.9-8.3-6.5 -0.5-0.1-1.1-0.1-1.6-0.1H5.4c0-2.9 1.9-5.5 4.7-6.3l0.8-0.2c10.3-3.1 18.2-11.3 21-21.7l3.2-12.2C35.4 7.6 36.5 7 37.5 7M37.5 4.1c-2.5 0-4.6 1.6-5.2 4l-3.2 12.2c-2.5 9.4-9.8 16.9-19 19.7L9.3 40.2c-2 0.6-3.6 1.8-4.9 3.4C3.2 45.3 2.5 47.2 2.5 49.3c0 1.6 1.3 2.9 2.9 2.9h9.3c0.4 0 0.8 0 1.2 0.1 2.7 0.4 5 2.2 6.1 4.8l2.1 4.9c0.4 1.1 1.5 1.8 2.7 1.8h21.7c1.2 0 2.2-0.7 2.7-1.8l2.1-4.9c1-2.5 3.4-4.3 6.1-4.8 0.4-0.1 0.8-0.1 1.2-0.1h9.3c1.6 0 2.9-1.3 2.9-2.9 0-2-0.6-4-1.9-5.7 -1.2-1.6-2.9-2.8-4.9-3.4l-0.8-0.2c-9.3-2.8-16.6-10.3-19-19.7L42.7 8.1C42.1 5.7 40 4.1 37.5 4.1L37.5 4.1z" class="b"/><path d="M32.6 51.4v7.2c0 0.8-0.1 1.6-0.3 2.3h-5.6l-2.1-4.9c-1.5-3.5-4.6-5.9-8.3-6.5 0.8-2.9 3.5-5 6.7-5h2.7C29.5 44.4 32.6 47.5 32.6 51.4z" class="e"/><path d="M58.7 49.4c-3.7 0.6-6.9 3-8.3 6.5l-2.1 4.9h-5.6c-0.2-0.7-0.3-1.5-0.3-2.3v-7.2c0-3.8 3.1-6.9 6.9-6.9h2.7C55.2 44.4 57.9 46.5 58.7 49.4z" class="e"/><path d="M35.9 31.9c-0.8 0-1.5-0.3-1.9-0.9 -0.5-0.6-0.6-1.4-0.4-2.1l1.7-6.2c0.3-1 1.2-1.7 2.2-1.7 1.1 0 2 0.7 2.2 1.7l1.7 6.2c0.2 0.7 0 1.5-0.4 2.1 -0.5 0.6-1.2 0.9-1.9 0.9H35.9z" class="f"/><path d="M37.5 22.4c0.4 0 0.7 0.2 0.8 0.6l1.7 6.2c0.2 0.6-0.3 1.2-0.9 1.2h-3.1c-0.6 0-1.1-0.6-0.9-1.2l1.7-6.2C36.8 22.6 37.1 22.4 37.5 22.4M37.5 19.5c-1.7 0-3.2 1.1-3.6 2.8l-1.7 6.2c-0.3 1.2-0.1 2.4 0.7 3.4 0.7 1 1.9 1.5 3.1 1.5h3.2c1.2 0 2.3-0.6 3.1-1.5 0.7-1 1-2.2 0.7-3.4l-1.7-6.2C40.7 20.6 39.2 19.5 37.5 19.5L37.5 19.5z" class="b"/><path d="M36.5 42.2c-1.6 0-2.9-1.3-2.9-2.9v-4c0-1.6 1.3-2.9 2.9-2.9h2.1c1.6 0 2.9 1.3 2.9 2.9v4c0 1.6-1.3 2.9-2.9 2.9H36.5z" class="f"/><path d="M38.5 33.8c0.8 0 1.5 0.7 1.5 1.5v4c0 0.8-0.7 1.5-1.5 1.5h-2.1c-0.8 0-1.5-0.7-1.5-1.5v-4c0-0.8 0.7-1.5 1.5-1.5H38.5M38.5 30.9h-2.1c-2.4 0-4.4 2-4.4 4.4v4c0 2.4 2 4.4 4.4 4.4h2.1c2.4 0 4.4-2 4.4-4.4v-4C42.9 32.8 41 30.9 38.5 30.9L38.5 30.9z" class="b"/><line x1="24.8" y1="56.9" x2="50.2" y2="56.9" style="fill:#CFCFCE;stroke-linejoin:round;stroke-width:3;stroke:#231F20"/><line x1="52.3" y1="22.2" x2="52.3" y2="3.5" class="g"/><line x1="22.7" y1="22.2" x2="22.7" y2="3.5" class="g"/><path d="M47.2 36.8c0 0 3.5 4.7 8.5 6.6" style="fill:none;stroke-linejoin:round;stroke-width:3;stroke:#F3F3F3"/><path d="M24.3 62.9c-2.4 0-4.4-2-4.4-4.4v-7.2c0-1.7 1.4-3.1 3.1-3.1h2.7c1.7 0 3.1 1.4 3.1 3.1v7.2C28.7 61 26.8 62.9 24.3 62.9z" class="a"/><path d="M25.7 49.7c0.9 0 1.6 0.7 1.6 1.6v7.2c0 1.6-1.3 3-3 3 -1.6 0-3-1.3-3-3v-7.2c0-0.9 0.7-1.6 1.6-1.6H25.7M25.7 46.9h-2.7c-2.5 0-4.5 2-4.5 4.5v7.2c0 3.2 2.6 5.9 5.9 5.9s5.9-2.6 5.9-5.9v-7.2C30.2 48.9 28.2 46.9 25.7 46.9L25.7 46.9z" class="b"/><path d="M50.7 62.9c-2.4 0-4.4-2-4.4-4.4v-7.2c0-1.7 1.4-3.1 3.1-3.1h2.7c1.7 0 3.1 1.4 3.1 3.1v7.2C55.1 61 53.1 62.9 50.7 62.9z" class="a"/><path d="M52.1 49.7c0.9 0 1.6 0.7 1.6 1.6v7.2c0 1.6-1.3 3-3 3l0 0c-1.6 0-3-1.3-3-3v-7.2c0-0.9 0.7-1.6 1.6-1.6H52.1M52.1 46.9h-2.7c-2.5 0-4.5 2-4.5 4.5v7.2c0 3.2 2.6 5.9 5.9 5.9 3.2 0 5.9-2.6 5.9-5.9v-7.2C56.6 48.9 54.5 46.9 52.1 46.9L52.1 46.9z" class="b"/></svg>